<svg xmlns="http://www.w3.org/2000/svg" width="20" height="12" viewBox="0 0 20 12">
  <path fill="#524F53" fill-rule="evenodd" d="M212,408.000519 C212,409.147677 211.105,410.076823 210,410.076823 C208.895,410.076823 208,409.147677 208,408.000519 C208,406.853361 208.895,405.924215 210,405.924215 C211.105,405.924215 212,406.853361 212,408.000519 M210,411.923696 C207.011,411.923696 204.195,410.447444 202.399,408.000519 C204.195,405.553595 207.011,404.076304 210,404.076304 C212.989,404.076304 215.805,405.553595 217.601,408.000519 C215.805,410.447444 212.989,411.923696 210,411.923696 M210,402 C205.724,402 201.999,404.416818 200,408.000519 C201.999,411.58422 205.724,414 210,414 C214.276,414 218.001,411.58422 220,408.000519 C218.001,404.416818 214.276,402 210,402" transform="translate(-200 -402)"/>
</svg>
